<?xml version="1.0" standalone="no"?>
<!DOCTYPE svg PUBLIC "-//W3C//DTD SVG 20010904//EN"
 "http://www.w3.org/TR/2001/REC-SVG-20010904/DTD/svg10.dtd">
<svg version="1.0" xmlns="http://www.w3.org/2000/svg"
 width="1000.000000pt" height="146.000000pt" viewBox="0 0 1000.000000 146.000000"
 preserveAspectRatio="xMidYMid meet">
<metadata>
Created by potrace 1.16, written by Peter Selinger 2001-2019
</metadata>
<g transform="translate(0.000000,146.000000) scale(0.100000,-0.100000)"
fill="#000000" stroke="none">
<path d="M1940 1441 c-14 -27 -14 -1395 0 -1422 17 -30 38 -22 49 18 15 52 15
1334 0 1386 -11 40 -32 48 -49 18z"/>
<path d="M3040 1421 c-76 -23 -139 -81 -166 -151 -15 -37 -19 -87 -22 -277
l-4 -233 41 0 41 0 0 95 0 95 200 0 200 0 0 -95 0 -95 41 0 41 0 -4 243 c-3
241 -3 242 -30 294 -32 61 -79 99 -144 119 -50 15 -152 17 -194 5z m193 -86
c22 -10 51 -36 65 -58 24 -36 27 -51 31 -149 l3 -108 -201 0 -201 0 0 83 c0
103 13 150 53 193 59 64 165 80 250 39z"/>
<path d="M3799 1415 c-26 -8 -61 -28 -78 -44 l-31 -29 0 39 c0 39 0 39 -40 39
l-40 0 0 -330 0 -330 40 0 40 0 0 213 c0 228 6 269 47 318 95 112 295 78 332
-56 6 -24 11 -130 11 -257 l0 -218 40 0 40 0 0 228 c0 298 -15 349 -117 409
-57 33 -171 41 -244 18z"/>
<path d="M4524 1410 c-166 -54 -260 -240 -209 -415 44 -154 161 -237 335 -238
71 -1 94 3 140 25 79 36 108 62 94 84 -22 37 -38 38 -88 3 -41 -30 -56 -34
-122 -37 -90 -5 -148 14 -206 66 -127 115 -113 322 29 412 96 61 201 63 296 6
l56 -34 22 24 22 24 -22 24 c-64 68 -230 94 -347 56z"/>
<path d="M5205 1416 c-68 -22 -120 -53 -159 -97 -103 -113 -113 -289 -25 -422
60 -91 157 -139 284 -140 150 -1 254 57 315 177 32 64 35 76 35 160 0 79 -4
98 -28 148 -39 79 -108 139 -191 166 -75 25 -168 28 -231 8z m232 -90 c180
-91 192 -340 22 -456 -40 -27 -60 -33 -118 -38 -92 -6 -150 11 -207 61 -56 50
-85 105 -91 177 -12 132 70 246 202 281 52 14 138 3 192 -25z"/>
<path d="M2150 1089 l0 -330 208 3 c198 3 209 4 256 28 73 37 91 67 91 150 0
78 -18 111 -77 145 l-36 20 24 18 c41 31 57 73 52 143 -5 73 -26 104 -93 135
-34 16 -67 19 -232 19 l-193 0 0 -331z m352 261 c73 -21 106 -74 84 -140 -8
-26 -22 -41 -56 -57 -39 -20 -59 -23 -172 -23 l-128 0 0 115 0 115 118 0 c64
0 134 -5 154 -10z m58 -306 c90 -36 95 -151 8 -195 -32 -16 -59 -19 -188 -19
l-150 0 0 115 0 115 145 0 c110 0 154 -4 185 -16z"/>
<path d="M3135 704 c-63 -16 -92 -30 -126 -61 l-39 -35 0 46 c0 46 0 46 -35
46 l-35 0 0 -330 0 -330 40 0 40 0 0 223 c0 194 3 227 19 262 35 76 88 107
183 106 60 0 88 -10 126 -45 54 -48 57 -64 60 -313 l4 -233 39 0 39 0 0 213
c0 297 -22 370 -131 424 -44 22 -144 37 -184 27z"/>
<path d="M4847 700 c-72 -13 -131 -52 -156 -103 -36 -75 -22 -149 38 -200 18
-15 27 -27 21 -27 -26 0 -74 -46 -92 -88 -39 -87 -3 -173 89 -219 106 -51 300
-41 396 23 37 24 37 25 22 54 -18 35 -19 36 -53 11 -62 -44 -201 -64 -284 -41
-118 33 -143 156 -41 206 28 14 68 19 156 22 l117 4 0 34 0 34 -107 0 c-83 0
-116 4 -143 18 -84 42 -77 141 13 189 48 26 176 23 247 -5 30 -12 56 -22 57
-22 0 0 6 14 12 32 13 37 9 41 -61 62 -63 19 -171 27 -231 16z"/>
<path d="M6092 700 c-124 -26 -190 -117 -161 -224 19 -70 60 -98 209 -141 136
-40 174 -62 185 -108 8 -32 -12 -74 -48 -101 -24 -18 -43 -21 -120 -21 -81 0
-98 4 -144 27 -28 15 -54 32 -58 38 -11 18 -22 11 -36 -21 -12 -30 -11 -33 17
-56 70 -56 228 -79 334 -47 133 39 181 185 91 275 -36 36 -51 42 -223 93 -124
37 -162 87 -121 157 26 44 76 64 158 63 63 0 115 -15 175 -51 8 -5 30 58 24
68 -2 4 -29 17 -59 28 -64 24 -163 33 -223 21z"/>
<path d="M7037 700 c-32 -5 -85 -22 -118 -36 -56 -25 -60 -29 -54 -53 10 -41
18 -43 77 -16 31 14 79 28 107 32 l51 6 0 -297 0 -296 40 0 40 0 0 296 0 297
47 -7 c25 -3 71 -17 101 -31 59 -27 67 -25 77 16 6 23 2 28 -37 47 -90 42
-223 59 -331 42z"/>
<path d="M7697 700 c-94 -24 -162 -85 -188 -169 -6 -20 -14 -138 -16 -263 l-5
-228 41 0 41 0 0 95 0 95 200 0 200 0 0 -95 0 -95 40 0 40 0 0 223 c0 122 -5
238 -10 257 -19 69 -64 126 -122 153 -60 30 -161 42 -221 27z m165 -80 c17 -1
82 -68 94 -97 9 -20 14 -70 14 -128 l0 -95 -201 0 -202 0 5 98 c4 80 9 107 29
142 39 71 122 105 214 88 22 -4 43 -7 47 -8z"/>
<path d="M9559 700 c-109 -19 -221 -112 -255 -213 -11 -33 -17 -81 -17 -131 2
-136 70 -239 199 -298 40 -19 67 -23 149 -23 89 0 106 3 156 27 68 34 123 87
157 153 37 72 43 197 13 276 -41 109 -136 186 -255 208 -66 12 -80 12 -147 1z
m186 -89 c177 -81 212 -318 64 -444 -175 -150 -445 -26 -443 203 2 155 111
260 269 260 46 0 84 -7 110 -19z"/>
<path d="M2150 464 c0 -157 4 -250 12 -278 19 -63 91 -130 157 -146 109 -26
240 7 286 72 14 22 15 21 15 -25 l0 -47 35 0 35 0 0 330 0 330 -39 0 -40 0 -3
-237 c-3 -228 -4 -240 -26 -275 -37 -60 -84 -83 -168 -83 -86 0 -133 26 -167
95 -20 42 -22 62 -25 273 l-4 227 -34 0 -34 0 0 -236z"/>
<path d="M3580 665 l0 -35 65 0 65 0 0 -265 0 -265 -65 0 -65 0 0 -30 0 -30
170 0 170 0 0 30 0 30 -65 0 -65 0 0 265 0 265 65 0 65 0 0 35 0 35 -170 0
-170 0 0 -35z"/>
<path d="M3961 693 c0 -5 64 -152 142 -328 l142 -320 44 0 43 0 144 325 c79
179 144 326 144 328 0 2 -19 2 -42 0 l-42 -3 -120 -272 c-67 -150 -123 -273
-126 -273 -3 0 -59 124 -125 275 l-120 275 -42 0 c-24 0 -43 -3 -42 -7z"/>
<path d="M5290 370 l0 -330 40 0 40 0 0 99 0 100 111 3 111 3 72 -102 71 -102
47 -1 48 0 -75 104 c-41 57 -75 108 -75 113 0 4 20 20 45 35 107 65 124 237
31 333 -60 62 -111 75 -308 75 l-158 0 0 -330z m360 238 c62 -32 84 -67 84
-131 0 -68 -24 -111 -77 -139 -35 -19 -62 -23 -164 -26 l-123 -4 0 161 0 161
118 0 c102 0 123 -3 162 -22z"/>
<path d="M6480 665 l0 -35 65 0 65 0 0 -265 0 -265 -65 0 -65 0 0 -30 0 -30
175 0 175 0 0 30 0 30 -70 0 -70 0 0 265 0 265 70 0 70 0 0 35 0 35 -175 0
-175 0 0 -35z"/>
<path d="M8250 370 l0 -330 40 0 40 0 0 99 0 100 110 3 110 3 73 -102 c72
-103 72 -103 115 -103 23 0 42 3 42 6 0 3 -31 50 -70 104 -38 54 -70 102 -70
107 0 4 20 20 44 34 113 69 120 271 12 354 -59 45 -113 55 -288 55 l-158 0 0
-330z m370 235 c69 -41 96 -144 55 -213 -34 -57 -85 -76 -222 -80 l-123 -4 0
162 0 162 128 -3 c106 -3 133 -7 162 -24z"/>
<path d="M8860 665 l0 -35 70 0 70 0 0 -265 0 -265 -70 0 -70 0 0 -30 0 -30
175 0 175 0 0 30 0 30 -65 0 -65 0 0 265 0 265 65 0 65 0 0 35 0 35 -175 0
-175 0 0 -35z"/>
</g>
</svg>
